frame:0    pts:14848   pts_time:1.16
lavfi.scene_score=0.604179
frame:1    pts:26112   pts_time:2.04
lavfi.scene_score=0.457220
frame:2    pts:27136   pts_time:2.12
lavfi.scene_score=0.449908
frame:3    pts:28160   pts_time:2.2
lavfi.scene_score=0.368310
frame:4    pts:28672   pts_time:2.24
lavfi.scene_score=0.343307
frame:5    pts:30208   pts_time:2.36
lavfi.scene_score=0.490272
frame:6    pts:41984   pts_time:3.28
lavfi.scene_score=0.750493
frame:7    pts:58368   pts_time:4.56
lavfi.scene_score=0.551579
frame:8    pts:71680   pts_time:5.6
lavfi.scene_score=0.485410
frame:9    pts:72704   pts_time:5.68
lavfi.scene_score=0.487292
frame:10   pts:74240   pts_time:5.8
lavfi.scene_score=0.708258
frame:11   pts:84480   pts_time:6.6
lavfi.scene_score=0.488288
frame:12   pts:85504   pts_time:6.68
lavfi.scene_score=0.575912
frame:13   pts:88576   pts_time:6.92
lavfi.scene_score=0.535889
frame:14   pts:94208   pts_time:7.36
lavfi.scene_score=0.536250
frame:15   pts:95232   pts_time:7.44
lavfi.scene_score=0.536301
frame:16   pts:96256   pts_time:7.52
lavfi.scene_score=0.324268
frame:17   pts:96768   pts_time:7.56
lavfi.scene_score=0.364823
frame:18   pts:98304   pts_time:7.68
lavfi.scene_score=0.487239
frame:19   pts:109056  pts_time:8.52
lavfi.scene_score=0.730155
frame:20   pts:121856  pts_time:9.52
lavfi.scene_score=0.627142
frame:21   pts:132096  pts_time:10.32
lavfi.scene_score=0.452139
frame:22   pts:133120  pts_time:10.4
lavfi.scene_score=0.450784
frame:23   pts:134656  pts_time:10.52
lavfi.scene_score=0.793009
frame:24   pts:135168  pts_time:10.56
lavfi.scene_score=0.320615
frame:25   pts:136192  pts_time:10.64
lavfi.scene_score=0.450747
frame:26   pts:148480  pts_time:11.6
lavfi.scene_score=0.583807
frame:27   pts:163328  pts_time:12.76
lavfi.scene_score=0.696352
frame:28   pts:177152  pts_time:13.84
lavfi.scene_score=0.707541
frame:29   pts:192000  pts_time:15
lavfi.scene_score=0.697582
frame:30   pts:208384  pts_time:16.28
lavfi.scene_score=0.729891
frame:31   pts:217600  pts_time:17
lavfi.scene_score=0.489594
frame:32   pts:218624  pts_time:17.08
lavfi.scene_score=0.490772
frame:33   pts:220160  pts_time:17.2
lavfi.scene_score=0.730943
frame:34   pts:221696  pts_time:17.32
lavfi.scene_score=0.487370
frame:35   pts:233984  pts_time:18.28
lavfi.scene_score=0.631341
frame:36   pts:243712  pts_time:19.04
lavfi.scene_score=0.642024
frame:37   pts:261120  pts_time:20.4
lavfi.scene_score=0.582610
frame:38   pts:282624  pts_time:22.08
lavfi.scene_score=1.000000
frame:39   pts:355840  pts_time:27.8
lavfi.scene_score=0.618634
